<svg width="177" height="40" viewBox="0 0 177 40" fill="none" xmlns="http://www.w3.org/2000/svg">
<path d="M0 20C0 10.5719 0 5.85786 2.92893 2.92893C5.85786 0 10.5719 0 20 0C29.4281 0 34.1421 0 37.0711 2.92893C40 5.85786 40 10.5719 40 20C40 29.4281 40 34.1421 37.0711 37.0711C34.1421 40 29.4281 40 20 40C10.5719 40 5.85786 40 2.92893 37.0711C0 34.1421 0 29.4281 0 20Z" fill="#4865DB"/>
<path d="M23.9999 26C24.5522 26 25.01 26.4521 24.9003 26.9934C24.7064 27.9494 24.2354 28.8355 23.5354 29.5355C22.5978 30.4732 21.326 31 19.9999 31C18.6738 31 17.4021 30.4732 16.4644 29.5355C15.7644 28.8355 15.2934 27.9494 15.0996 26.9934C14.9898 26.4521 15.4476 26 15.9999 26H23.9999Z" fill="white"/>
<path d="M26.1022 17.7765C25.5687 17.9194 25.242 18.4775 25.5125 18.959C25.7972 19.4658 26.191 19.9081 26.6701 20.2514C27.4223 20.7904 28.3381 21.052 29.2616 20.9914C30.185 20.9309 31.0589 20.5521 31.7343 19.9195C32.4098 19.2869 32.8449 18.4396 32.9657 17.5221C33.0865 16.6046 32.8855 15.6736 32.3968 14.8877C31.9081 14.1019 31.162 13.5098 30.2857 13.2123C29.4094 12.9148 28.4571 12.9304 27.591 13.2564C27.0394 13.464 26.5446 13.7893 26.1384 14.2051C25.7525 14.6002 25.9236 15.2239 26.4019 15.5L26.9092 15.7929C27.6807 16.2384 27.5286 17.3943 26.668 17.6249L26.1022 17.7765Z" fill="white"/>
<path d="M13.8977 17.7765C14.4312 17.9194 14.7579 18.4775 14.4874 18.959C14.2027 19.4658 13.8089 19.9081 13.3299 20.2514C12.5777 20.7904 11.6618 21.052 10.7384 20.9914C9.81496 20.9309 8.94107 20.5521 8.26564 19.9195C7.59021 19.2869 7.15502 18.4396 7.03423 17.5221C6.91344 16.6046 7.11451 15.6736 7.6032 14.8877C8.09188 14.1019 8.83794 13.5098 9.71425 13.2123C10.5905 12.9148 11.5429 12.9304 12.409 13.2564C12.9605 13.464 13.4554 13.7893 13.8616 14.2051C14.2475 14.6002 14.0763 15.2239 13.598 15.5L13.0907 15.7929C12.3192 16.2384 12.4714 17.3943 13.3319 17.6249L13.8977 17.7765Z" fill="white"/>
<path d="M57.4868 27.5V12.3857H59.7119L64.9209 20.23H65.0029L70.2222 12.3857H72.437V27.5H69.5044V21.6143L69.5659 17.9023H69.4839L65.29 24.4443H64.6338L60.4399 17.9023H60.3579L60.4194 21.6143V27.5H57.4868ZM79.1736 27.6641C78.1277 27.6641 77.1775 27.4248 76.323 26.9463C75.4754 26.4609 74.7986 25.791 74.2928 24.9365C73.7938 24.082 73.5442 23.0977 73.5442 21.9834C73.5442 20.8691 73.7938 19.8916 74.2928 19.0508C74.7986 18.2031 75.4754 17.5435 76.323 17.0718C77.1775 16.5933 78.1277 16.354 79.1736 16.354C80.24 16.354 81.1971 16.5933 82.0447 17.0718C82.8924 17.5435 83.5623 18.2031 84.0545 19.0508C84.5535 19.8916 84.803 20.8691 84.803 21.9834C84.803 23.0977 84.5535 24.082 84.0545 24.9365C83.5555 25.791 82.8821 26.4609 82.0345 26.9463C81.1868 27.4248 80.2332 27.6641 79.1736 27.6641ZM79.1736 25.2134C79.7273 25.2134 80.2229 25.0801 80.6604 24.8135C81.0979 24.54 81.4432 24.1606 81.6961 23.6753C81.949 23.1899 82.0755 22.626 82.0755 21.9834C82.0755 21.3545 81.9524 20.8042 81.7063 20.3325C81.4603 19.854 81.1185 19.4814 80.681 19.2148C80.2503 18.9414 79.7513 18.8047 79.1839 18.8047C78.6302 18.8047 78.1346 18.938 77.6971 19.2046C77.2596 19.4644 76.9144 19.8335 76.6614 20.312C76.4085 20.7905 76.282 21.3477 76.282 21.9834C76.282 22.626 76.4085 23.1899 76.6614 23.6753C76.9144 24.1606 77.2562 24.54 77.6868 24.8135C78.1243 25.0801 78.6199 25.2134 79.1736 25.2134ZM90.9039 27.6641C89.858 27.6641 88.9078 27.4248 88.0533 26.9463C87.2057 26.4609 86.5289 25.791 86.023 24.9365C85.524 24.082 85.2745 23.0977 85.2745 21.9834C85.2745 20.8691 85.524 19.8916 86.023 19.0508C86.5289 18.2031 87.2057 17.5435 88.0533 17.0718C88.9078 16.5933 89.858 16.354 90.9039 16.354C91.9703 16.354 92.9273 16.5933 93.775 17.0718C94.6227 17.5435 95.2926 18.2031 95.7848 19.0508C96.2838 19.8916 96.5333 20.8691 96.5333 21.9834C96.5333 23.0977 96.2838 24.082 95.7848 24.9365C95.2857 25.791 94.6124 26.4609 93.7647 26.9463C92.9171 27.4248 91.9635 27.6641 90.9039 27.6641ZM90.9039 25.2134C91.4576 25.2134 91.9532 25.0801 92.3907 24.8135C92.8282 24.54 93.1734 24.1606 93.4264 23.6753C93.6793 23.1899 93.8058 22.626 93.8058 21.9834C93.8058 21.3545 93.6827 20.8042 93.4366 20.3325C93.1905 19.854 92.8487 19.4814 92.4112 19.2148C91.9806 18.9414 91.4815 18.8047 90.9142 18.8047C90.3604 18.8047 89.8648 18.938 89.4273 19.2046C88.9898 19.4644 88.6446 19.8335 88.3917 20.312C88.1388 20.7905 88.0123 21.3477 88.0123 21.9834C88.0123 22.626 88.1388 23.1899 88.3917 23.6753C88.6446 24.1606 88.9864 24.54 89.4171 24.8135C89.8546 25.0801 90.3502 25.2134 90.9039 25.2134ZM107.741 27.6641C107.262 27.5 106.859 27.3188 106.531 27.1206C106.209 26.9224 105.956 26.707 105.772 26.4746C105.594 26.2422 105.478 25.9824 105.423 25.6953L105.751 25.9004H104.798L105.28 24.6187V18.6611L104.767 17.5332H105.044V11.709H107.874V23.9009C107.874 24.3179 107.939 24.6187 108.069 24.8032C108.199 24.981 108.428 25.1348 108.756 25.2646L107.741 27.6641ZM101.845 27.6641C101.236 27.6641 100.642 27.5444 100.06 27.3052C99.4794 27.0659 98.9564 26.7104 98.4916 26.2388C98.0336 25.7603 97.6679 25.1689 97.3944 24.4648C97.1278 23.7607 96.9979 22.9473 97.0048 22.0244C96.9911 20.7939 97.2167 19.7549 97.6815 18.9072C98.1532 18.0596 98.765 17.4204 99.517 16.9897C100.269 16.5522 101.065 16.3335 101.906 16.3335C102.843 16.3335 103.67 16.5796 104.388 17.0718C105.105 17.564 105.666 18.2339 106.069 19.0815C106.479 19.9292 106.688 20.8794 106.695 21.9321C106.688 22.9917 106.473 23.959 106.049 24.834C105.625 25.7021 105.047 26.3926 104.316 26.9053C103.591 27.4111 102.767 27.6641 101.845 27.6641ZM102.47 25.2646C102.996 25.2578 103.461 25.1177 103.865 24.8442C104.275 24.564 104.596 24.1777 104.829 23.6855C105.068 23.1934 105.187 22.6226 105.187 21.9731C105.187 21.2964 105.068 20.7188 104.829 20.2402C104.589 19.7549 104.268 19.3823 103.865 19.1226C103.468 18.8628 103.02 18.7363 102.521 18.7432C101.981 18.7363 101.503 18.8662 101.086 19.1328C100.676 19.3994 100.354 19.7754 100.122 20.2607C99.8895 20.7461 99.7768 21.3169 99.7836 21.9731C99.7768 22.6226 99.8861 23.1934 100.112 23.6855C100.344 24.1777 100.662 24.564 101.065 24.8442C101.475 25.1177 101.944 25.2578 102.47 25.2646ZM119.307 27.6641C118.056 27.6641 117.112 27.3188 116.477 26.6284C115.848 25.9312 115.533 25.0391 115.533 23.9521V13.2266H118.363V23.7881C118.363 24.2871 118.483 24.646 118.722 24.8647C118.968 25.0767 119.259 25.1826 119.594 25.1826C119.751 25.1826 119.901 25.1655 120.045 25.1313C120.195 25.0903 120.325 25.0391 120.435 24.9775L121.357 27.2129C121.07 27.3633 120.752 27.4761 120.404 27.5513C120.062 27.6265 119.696 27.6641 119.307 27.6641ZM113.729 18.8047V16.5078H120.947V18.8047H113.729ZM121.962 27.5V16.5181H124.721V18.0972H125.028L124.331 18.8457C124.502 18.4697 124.755 18.0903 125.09 17.7075C125.431 17.3247 125.852 17.0034 126.351 16.7437C126.85 16.4839 127.431 16.354 128.094 16.354C128.374 16.354 128.624 16.3745 128.843 16.4155C129.061 16.4565 129.219 16.501 129.314 16.5488L128.176 19.2661C128.115 19.2319 127.998 19.1978 127.827 19.1636C127.663 19.1294 127.479 19.1123 127.274 19.1123C127.007 19.1123 126.727 19.167 126.433 19.2764C126.139 19.3789 125.869 19.5361 125.623 19.748C125.377 19.96 125.175 20.2266 125.018 20.5479C124.867 20.8691 124.792 21.2451 124.792 21.6758V27.5H121.962ZM132.103 27.6641C131.365 27.6641 130.715 27.5171 130.155 27.2231C129.594 26.9224 129.157 26.519 128.842 26.0132C128.528 25.5073 128.371 24.9365 128.371 24.3008C128.371 23.6445 128.548 23.0669 128.904 22.5679C129.266 22.062 129.803 21.6689 130.514 21.3887C131.225 21.1016 132.103 20.958 133.149 20.958H135.589V22.8242H133.17C132.513 22.8242 132.001 22.9336 131.631 23.1523C131.262 23.3711 131.078 23.7129 131.078 24.1777C131.078 24.458 131.146 24.6973 131.283 24.8955C131.426 25.0869 131.625 25.2339 131.878 25.3364C132.13 25.439 132.418 25.4902 132.739 25.4902C133.033 25.4902 133.375 25.4253 133.764 25.2954C134.154 25.1655 134.492 24.957 134.779 24.6699C135.073 24.376 135.22 23.9932 135.22 23.5215V22.3936L135.036 21.8398V20.4248C135.036 20.1855 135.002 19.9634 134.933 19.7583C134.865 19.5532 134.752 19.3721 134.595 19.2148C134.444 19.0576 134.243 18.938 133.99 18.856C133.744 18.7671 133.443 18.7227 133.088 18.7227C132.739 18.7227 132.373 18.7603 131.99 18.8354C131.608 18.9106 131.242 19.0132 130.893 19.1431C130.551 19.2661 130.257 19.4062 130.011 19.5635L129.088 17.3691C129.369 17.2051 129.734 17.0479 130.186 16.8975C130.637 16.7402 131.143 16.6138 131.703 16.5181C132.271 16.4155 132.862 16.3643 133.477 16.3643C134.482 16.3643 135.272 16.501 135.846 16.7744C136.42 17.0479 136.84 17.3965 137.107 17.8203C137.38 18.2373 137.555 18.6748 137.63 19.1328C137.705 19.5908 137.743 20.0078 137.743 20.3838V23.8086C137.743 24.2256 137.784 24.54 137.866 24.752C137.955 24.957 138.126 25.1006 138.379 25.1826L138.625 25.2646L137.599 27.6641L137.271 27.541C136.67 27.3154 136.232 27.0522 135.959 26.7515C135.685 26.4438 135.528 26.1396 135.487 25.8389L136.02 26.1875H135.118L135.733 25.9004C135.501 26.3652 135.049 26.7754 134.379 27.1309C133.716 27.4863 132.958 27.6641 132.103 27.6641ZM144.582 27.623C143.775 27.623 143.02 27.4795 142.316 27.1924C141.619 26.9053 141.003 26.5054 140.47 25.9927C139.944 25.48 139.53 24.8818 139.229 24.1982C138.929 23.5078 138.778 22.7593 138.778 21.9526C138.778 21.1528 138.925 20.4146 139.219 19.7378C139.52 19.0542 139.933 18.4595 140.46 17.9536C140.986 17.4409 141.591 17.0444 142.275 16.7642C142.965 16.4839 143.7 16.3438 144.479 16.3438C145.108 16.3438 145.72 16.436 146.315 16.6206C146.91 16.7983 147.436 17.0479 147.894 17.3691L146.848 19.666C146.657 19.4951 146.438 19.3447 146.192 19.2148C145.946 19.085 145.683 18.9858 145.402 18.9175C145.129 18.8491 144.845 18.8149 144.551 18.8149C143.95 18.8149 143.42 18.9551 142.962 19.2354C142.504 19.5156 142.148 19.895 141.895 20.3735C141.642 20.8452 141.516 21.375 141.516 21.9629C141.516 22.5576 141.646 23.0977 141.906 23.583C142.165 24.0615 142.524 24.4443 142.982 24.7314C143.44 25.0117 143.963 25.1519 144.551 25.1519C145.03 25.1519 145.484 25.0698 145.915 24.9058C146.346 24.7349 146.67 24.5435 146.889 24.3315L147.914 26.6797C147.518 26.9395 147.029 27.1616 146.448 27.3462C145.874 27.5308 145.252 27.623 144.582 27.623ZM148.601 27.5V11.709H151.431V20.8862H152.313L151.349 21.3887L155.482 16.5078H158.886L153.544 22.5576V20.9478L159.142 27.5H155.748L151.329 22.1987L152.313 22.7319H151.431V27.5H148.601ZM163.746 27.6641C162.591 27.6641 161.586 27.4248 160.731 26.9463C159.877 26.4609 159.214 25.7944 158.742 24.9468C158.277 24.0923 158.045 23.1182 158.045 22.0244C158.045 20.8691 158.284 19.8711 158.763 19.0303C159.248 18.1826 159.891 17.5264 160.69 17.0615C161.497 16.5967 162.379 16.3643 163.336 16.3643C164.245 16.3643 165.076 16.5762 165.828 17C166.586 17.417 167.195 18.0083 167.653 18.7739C168.111 19.5327 168.34 20.4316 168.34 21.4707C168.34 21.71 168.326 21.939 168.299 22.1577C168.271 22.3765 168.23 22.6328 168.176 22.9268H160.157V21.04H165.735C165.735 20.5684 165.633 20.1548 165.428 19.7993C165.223 19.4438 164.939 19.167 164.577 18.9688C164.221 18.7637 163.808 18.6611 163.336 18.6611C162.762 18.6611 162.263 18.8013 161.839 19.0815C161.422 19.355 161.097 19.7378 160.865 20.23C160.639 20.7222 160.526 21.293 160.526 21.9424C160.526 22.6191 160.653 23.2139 160.906 23.7266C161.159 24.2393 161.521 24.6426 161.993 24.9365C162.464 25.2236 163.021 25.3672 163.664 25.3672C164.026 25.3672 164.378 25.3262 164.72 25.2441C165.062 25.1553 165.38 25.0391 165.674 24.8955C165.968 24.752 166.221 24.5947 166.433 24.4238L167.355 26.6592C166.918 26.96 166.385 27.2026 165.756 27.3872C165.134 27.5718 164.464 27.6641 163.746 27.6641ZM169.314 27.5V16.5181H172.072V18.0972H172.38L171.682 18.8457C171.853 18.4697 172.106 18.0903 172.441 17.7075C172.783 17.3247 173.203 17.0034 173.702 16.7437C174.201 16.4839 174.783 16.354 175.446 16.354C175.726 16.354 175.975 16.3745 176.194 16.4155C176.413 16.4565 176.57 16.501 176.666 16.5488L175.528 19.2661C175.466 19.2319 175.35 19.1978 175.179 19.1636C175.015 19.1294 174.83 19.1123 174.625 19.1123C174.359 19.1123 174.078 19.167 173.784 19.2764C173.491 19.3789 173.221 19.5361 172.974 19.748C172.728 19.96 172.527 20.2266 172.369 20.5479C172.219 20.8691 172.144 21.2451 172.144 21.6758V27.5H169.314Z" fill="#21214D"/>
</svg>
